# xmcd
#
# Track frame offsets:
#	150
#	25730
#	51982
#	73940
#	96161
#	121832
#
# Disc length: 1934 seconds
#
# Revision: 0
# Processed by: cddbd v1.5.2PL0 Copyright (c) Steve Scherf et al.
# Submitted via: dBpowerAMP V4.0
#
DISCID=4e078c06
DTITLE=Various Artist - Sainikudu
DYEAR=2006
DGENRE=Telugu
TTITLE0=leslie Lewis,Anushka,Sunitha Sarathy - Byla Bylamo
TTITLE1=S.P.B, Unni Krishnana, Kavitha Subramanium - Maayera
TTITLE2=Hariharan, Chitra - Aadapilla
TTITLE3=Shreya Goshal - Sogasuchuda
TTITLE4=karthik, Karunya, Harini, Malathi - Orugalluke Pilaa
TTITLE5=K.K - Go..Go..
EXTD=Submitted By Dhanush!
EXTT0=
EXTT1=
EXTT2=
EXTT3=
EXTT4=
EXTT5=
PLAYORDER=
